<svg width="87" height="32" viewBox="0 0 87 32" fill="none" xmlns="http://www.w3.org/2000/svg">
<g clip-path="url(#clip0_1_2146)">
<path d="M28.5307 25.0498V15.4705C28.5307 11.965 27.1139 10.1879 24.3358 10.1879C23.4607 10.1757 22.5996 10.4069 21.8773 10.833C21.155 11.259 20.5716 11.9163 20.141 12.7805C19.7243 13.6203 19.5159 14.6306 19.5159 15.7748V25.0498H14.5154V15.4705C14.5154 11.965 13.0847 10.1879 10.2788 10.1879C9.36207 10.1757 8.47309 10.4069 7.70913 10.833C6.97294 11.259 6.37566 11.9163 5.93117 12.7805C5.48668 13.6447 5.27832 14.6306 5.27832 15.7748V25.0376H0.277805V6.63365H5.27832V9.14107H5.31999L5.445 9.00718C7.15351 7.30311 9.62599 6.31718 12.2235 6.31718C15.1127 6.31718 17.099 7.25442 18.3074 9.18976C18.3074 9.18976 18.4186 9.37233 18.4325 9.37233L18.5575 9.23844C19.8354 8.03342 21.78 7.02315 23.7247 6.58496C24.5581 6.40238 25.4193 6.30501 26.2805 6.31718C28.5724 6.31718 30.3781 6.96229 31.6283 8.22817C32.8784 9.49405 33.5451 11.5389 33.5451 14.2411V25.062L28.5307 25.0498Z" fill="white"/>
<path d="M65.479 25.0498L57.2003 6.64587H62.4925L67.9514 19.7916L73.2853 6.64587H78.647L70.3822 25.0498H65.479Z" fill="white"/>
<path d="M83.0224 5.47737C84.7485 5.47737 86.1478 4.25122 86.1478 2.73868C86.1478 1.22615 84.7485 0 83.0224 0C81.2964 0 79.8971 1.22615 79.8971 2.73868C79.8971 4.25122 81.2964 5.47737 83.0224 5.47737Z" fill="white"/>
<path d="M85.5366 6.64587H80.4944V25.0498H85.5366V6.64587Z" fill="white"/>
<path d="M46.2964 20.8749C43.3934 20.6071 41.032 18.623 41.032 15.8357C41.032 13.0361 43.3934 11.0764 46.2964 10.7965V6.30505C40.2958 6.59718 35.6981 11.1008 36.0315 16.3591C36.3371 21.2157 40.7542 25.0863 46.2964 25.3541V20.8749Z" fill="white"/>
<path d="M47.5466 6.30505V10.7965C50.4496 11.0643 52.811 13.0483 52.811 15.8357C52.811 18.55 50.4496 20.5949 47.5466 20.8749V25.3663C53.5472 25.0742 58.1449 20.5706 57.8115 15.3123C57.5059 10.4557 53.0888 6.57284 47.5466 6.30505Z" fill="white"/>
<path d="M3.00031 31.0262V29.4925L2.13911 30.7584H1.83352L0.97232 29.5291V31.0262H0.347256V28.4701H0.902868L1.98631 30.0524L3.05587 28.4701H3.61148L3.62537 31.0262H3.00031Z" fill="white"/>
<path d="M4.63936 30.7706C4.40323 30.5637 4.29211 30.2837 4.29211 29.9064V28.4823H4.97273V29.8942C4.97273 30.3567 5.19498 30.5758 5.62558 30.5758C5.83393 30.5758 6.00062 30.515 6.11174 30.4054C6.22286 30.2959 6.27842 30.1255 6.27842 29.882V28.4701H6.94516V29.8942C6.94516 30.2715 6.83403 30.5515 6.5979 30.7584C6.36176 30.9653 6.04229 31.0627 5.62558 31.0627C5.20887 31.0627 4.8755 30.9653 4.63936 30.7706Z" fill="white"/>
<path d="M9.4593 30.4785H8.11194L7.84803 31.0262H7.15351L8.44531 28.4701H9.11205L10.4177 31.0262H9.70933L9.4593 30.4785ZM9.23706 30.0281L8.77868 29.0543L8.3203 30.0281H9.23706Z" fill="white"/>
<path d="M12.1818 30.9898C11.9734 30.9411 11.7929 30.8681 11.6679 30.7707L11.8901 30.3203C12.0151 30.4055 12.1679 30.4664 12.3346 30.5151C12.5013 30.5638 12.6819 30.5881 12.8485 30.5881C13.043 30.5881 13.1819 30.5638 13.2791 30.5151C13.3764 30.4664 13.418 30.3934 13.418 30.3203C13.418 30.2595 13.3903 30.2108 13.3347 30.1743C13.2791 30.1377 13.2097 30.1012 13.1263 30.0769C13.043 30.0525 12.9319 30.0282 12.7791 29.9917C12.5568 29.943 12.3763 29.8943 12.2374 29.8578C12.0985 29.8091 11.9734 29.7361 11.8762 29.6387C11.779 29.5413 11.7234 29.3953 11.7234 29.2249C11.7234 29.0788 11.7651 28.9449 11.8623 28.8232C11.9596 28.7015 12.0985 28.6041 12.279 28.5311C12.4596 28.458 12.6957 28.4215 12.9597 28.4215C13.1402 28.4215 13.3208 28.4459 13.5014 28.4824C13.682 28.5189 13.8348 28.5797 13.9737 28.6528L13.7653 29.1031C13.5014 28.9692 13.2236 28.9084 12.9597 28.9084C12.7652 28.9084 12.6263 28.9327 12.543 28.9936C12.4596 29.0423 12.404 29.1153 12.404 29.2005C12.404 29.2857 12.4596 29.3587 12.5568 29.3953C12.6541 29.4318 12.8208 29.4805 13.0291 29.517C13.2514 29.5657 13.4319 29.6144 13.5708 29.6509C13.7097 29.6996 13.8348 29.7726 13.932 29.87C14.0292 29.9673 14.0848 30.1012 14.0848 30.2716C14.0848 30.4177 14.0431 30.5516 13.9459 30.6733C13.8486 30.795 13.7097 30.8924 13.5292 30.9654C13.3486 31.0385 13.1125 31.075 12.8485 31.075C12.6263 31.0628 12.404 31.0385 12.1818 30.9898Z" fill="white"/>
<path d="M16.4739 30.4785H15.1266L14.8626 31.0262H14.1681L15.4599 28.4701H16.1267L17.4323 31.0262H16.7239L16.4739 30.4785ZM15.2655 28.178C15.1266 28.0928 15.0432 27.9954 15.0293 27.8494H15.4182C15.4321 27.8981 15.4599 27.9467 15.5294 27.9711C15.5988 28.0076 15.6822 28.0198 15.7933 28.0198C15.9044 28.0198 15.9878 28.0076 16.0572 27.9711C16.1267 27.9346 16.1683 27.8981 16.1683 27.8494H16.5573C16.5434 27.9833 16.46 28.0928 16.3211 28.178C16.1822 28.2632 16.0016 28.2997 15.7933 28.2997C15.5849 28.2876 15.4044 28.251 15.2655 28.178ZM16.2517 30.0281L15.7933 29.0544L15.3349 30.0281H16.2517ZM15.9044 27.3016H16.5711L15.9183 27.7398H15.446L15.9044 27.3016Z" fill="white"/>
<path d="M20.391 31.0262V29.4925L19.5298 30.7584H19.2242L18.3769 29.5291V31.0262H17.7379V28.4701H18.2935L19.377 30.0524L20.4465 28.4701H21.0022L21.0161 31.0262H20.391Z" fill="white"/>
<path d="M23.4885 28.957H22.5579V28.4701H25.0998V28.957H24.1691V31.0262H23.4885V28.957Z" fill="white"/>
<path d="M25.4609 28.4701H26.1416V31.0262H25.4609V28.4701Z" fill="white"/>
<path d="M29.0863 30.5516V31.0263H26.8361V28.4702H29.0308V28.9449H27.5028V29.5048H28.8502V29.9673H27.5028V30.5638H29.0863V30.5516ZM28.2946 28.2633L27.9334 27.9833L27.5723 28.2633H27.0861L27.6417 27.7399H28.2112L28.7668 28.2633H28.2946ZM27.739 31.7201C27.6834 31.6714 27.6556 31.6105 27.6556 31.5375C27.6556 31.4645 27.6834 31.4036 27.739 31.3549C27.7945 31.3062 27.864 31.2819 27.9473 31.2819C28.0307 31.2819 28.1001 31.3062 28.1557 31.3549C28.2112 31.4036 28.239 31.4645 28.239 31.5375C28.239 31.6105 28.2112 31.6714 28.1557 31.7201C28.1001 31.7688 28.0307 31.7931 27.9473 31.7931C27.864 31.7931 27.7945 31.7688 27.739 31.7201Z" fill="white"/>
<path d="M32.2811 28.4701V31.0262H31.7255L30.2809 29.4804V31.0262H29.6142V28.4701H30.1698L31.6144 30.0159V28.4701H32.2811Z" fill="white"/>
<path d="M34.1563 28.4701H34.8369V30.5393H36.2954V31.0262H34.1563V28.4701Z" fill="white"/>
<path d="M39.4902 29.2126C39.5735 29.383 39.6152 29.5534 39.6152 29.7482C39.6152 30.0038 39.5457 30.2229 39.4068 30.4298C39.2679 30.6245 39.0735 30.7828 38.8373 30.9045C38.6012 31.014 38.3234 31.0749 38.0178 31.0749C37.7122 31.0749 37.4483 31.014 37.1983 30.9045C36.9621 30.795 36.7677 30.6367 36.6288 30.4298C36.4899 30.235 36.4204 30.0038 36.4204 29.7482C36.4204 29.4926 36.4899 29.2735 36.6288 29.0665C36.7677 28.8718 36.9621 28.7136 37.2122 28.5918C37.4622 28.4823 37.74 28.4214 38.0456 28.4214C38.1706 28.4214 38.3234 28.4336 38.504 28.4458C38.6429 28.4579 38.754 28.4701 38.8095 28.4701C38.9207 28.4701 39.004 28.4458 39.0596 28.4093C39.1151 28.3727 39.1429 28.3119 39.1429 28.2267C39.1429 28.1536 39.1151 28.0806 39.0596 28.0076L39.4485 27.8859C39.5318 27.9954 39.5874 28.1171 39.5874 28.251C39.5874 28.3849 39.5457 28.4945 39.4624 28.5918C39.3791 28.677 39.2679 28.7501 39.1151 28.7866C39.2818 28.8961 39.4068 29.0422 39.4902 29.2126ZM38.504 30.4663C38.6429 30.3933 38.754 30.2959 38.8373 30.1742C38.9207 30.0525 38.9623 29.9064 38.9623 29.7482C38.9623 29.5899 38.9207 29.4439 38.8373 29.3222C38.754 29.2004 38.6429 29.1031 38.504 29.03C38.3651 28.957 38.2123 28.9205 38.0317 28.9205C37.8511 28.9205 37.6983 28.957 37.5594 29.03C37.4205 29.1031 37.3094 29.2004 37.2261 29.3222C37.1427 29.4439 37.101 29.5899 37.101 29.7482C37.101 29.9064 37.1427 30.0525 37.2261 30.1742C37.3094 30.2959 37.4205 30.3933 37.5594 30.4663C37.6983 30.5393 37.8511 30.5759 38.0317 30.5759C38.2123 30.5759 38.3651 30.5272 38.504 30.4663ZM37.8233 31.72C37.7678 31.6713 37.74 31.6105 37.74 31.5374C37.74 31.4644 37.7678 31.4036 37.8233 31.3549C37.8789 31.3062 37.9483 31.2818 38.0317 31.2818C38.115 31.2818 38.1845 31.3062 38.24 31.3549C38.2956 31.4036 38.3234 31.4644 38.3234 31.5374C38.3234 31.6105 38.2956 31.6713 38.24 31.72C38.1845 31.7687 38.115 31.7931 38.0317 31.7931C37.9483 31.7931 37.8789 31.7687 37.8233 31.72Z" fill="white"/>
<path d="M40.1291 28.4701H40.8098V31.0262H40.1291V28.4701Z" fill="white"/>
<path d="M42.546 29.7725H43.7267V30.2228H42.546V29.7725Z" fill="white"/>
<path d="M46.0603 28.957H45.1296V28.4701H47.6716V28.957H46.7409V31.0262H46.0603V28.957Z" fill="white"/>
<path d="M49.7968 30.4786H48.4494L48.1855 31.0263H47.491L48.7828 28.4702H49.4495L50.7552 31.0263H50.0468L49.7968 30.4786ZM48.255 27.7399H48.9495L49.5051 28.2633H48.9912L48.255 27.7399ZM49.5884 30.0282L49.1301 29.0544L48.6717 30.0282H49.5884Z" fill="white"/>
<path d="M51.0747 28.4702H51.7553V31.0263H51.0747V28.4702Z" fill="white"/>
<path d="M54.2 30.8924C53.9639 30.7828 53.7694 30.6246 53.6305 30.4177C53.4916 30.2229 53.4222 29.9917 53.4222 29.736C53.4222 29.4804 53.4916 29.2613 53.6305 29.0544C53.7694 28.8475 53.95 28.7014 54.2 28.5797C54.4362 28.4702 54.714 28.4093 55.0057 28.4093C55.2557 28.4093 55.4918 28.4458 55.6863 28.531C55.8946 28.6041 56.0613 28.7258 56.2002 28.8718L55.7696 29.2248C55.5752 29.0301 55.3251 28.9205 55.0334 28.9205C54.8529 28.9205 54.6862 28.957 54.5473 29.0301C54.4084 29.1031 54.2972 29.2005 54.2139 29.3222C54.1306 29.4439 54.0889 29.59 54.0889 29.7482C54.0889 29.9064 54.1306 30.0525 54.2139 30.1742C54.2972 30.296 54.4084 30.3933 54.5473 30.4664C54.6862 30.5394 54.8529 30.5759 55.0334 30.5759C55.3251 30.5759 55.5752 30.4785 55.7696 30.2716L56.2002 30.6246C56.0613 30.7707 55.8946 30.8802 55.6863 30.9654C55.4779 31.0384 55.2557 31.0871 55.0057 31.0871C54.714 31.0628 54.4362 31.0141 54.2 30.8924Z" fill="white"/>
<path d="M59.3255 28.4702V31.0263H58.6449V29.9795H57.3253V31.0263H56.6447V28.4702H57.3253V29.4805H58.6449V28.4702H59.3255Z" fill="white"/>
<path d="M60.5479 27.7399H61.2424L60.4923 28.2633H59.9784L60.5479 27.7399ZM60.0201 28.4702H60.7007V31.0263H60.0201V28.4702Z" fill="white"/>
<path d="M64.0621 28.4702V31.0263H63.5065L62.0481 29.4805V31.0263H61.3813V28.4702H61.9369L63.3815 30.0161V28.4702H64.0621Z" fill="white"/>
<path d="M67.4236 28.4702V31.0263H66.743V29.9795H65.4234V31.0263H64.7428V28.4702H65.4234V29.4805H66.743V28.4702H67.4236Z" fill="white"/>
<path d="M71.2018 30.4786H69.8544L69.5905 31.0263H68.896L70.1878 28.4702H70.8545L72.1602 31.0263H71.4518L71.2018 30.4786ZM70.9934 30.0282L70.535 29.0545L70.0766 30.0282H70.9934Z" fill="white"/>
<path d="M75.1466 28.4702V31.0263H74.591L73.1325 29.4805V31.0263H72.4658V28.4702H73.0214L74.466 30.0161V28.4702H75.1466Z" fill="white"/>
<path d="M77.6191 28.957H76.6884V28.4701H79.2304V28.957H78.2997V31.0262H77.6191V28.957Z" fill="white"/>
<path d="M81.3556 30.4786H80.0082L79.7443 31.0263H79.0498L80.3416 28.4702H81.0083L82.314 31.0263H81.6056L81.3556 30.4786ZM81.05 28.2633L80.6889 27.9833L80.3277 28.2633H79.8554L80.4111 27.7399H80.9806L81.5362 28.2633H81.05ZM81.1472 30.0282L80.6889 29.0544L80.2305 30.0282H81.1472Z" fill="white"/>
<path d="M85.2727 31.0263V29.4927L84.4115 30.7585H84.1059L83.2586 29.5292V31.0263H82.6196V28.4702H83.1752L84.2587 30.0526L85.3282 28.4702H85.8838L85.8977 31.0263H85.2727Z" fill="white"/>
</g>
<defs>
<clipPath id="clip0_1_2146">
<rect width="86.2589" height="32" fill="white"/>
</clipPath>
</defs>
</svg>
